<svg xmlns="http://www.w3.org/2000/svg" viewBox="0 0 1600 900" role="img" aria-labelledby="title desc">
    <title id="title">Cena ilustrada de comunidade e escrita</title>
    <desc id="desc">Ilustracao com pessoas ao fundo e um voluntario em destaque, usada como imagem do hero.</desc>
    <defs>
        <linearGradient id="bg" x1="0" y1="0" x2="1" y2="1">
            <stop offset="0%" stop-color="#24364e" />
            <stop offset="48%" stop-color="#33445d" />
            <stop offset="100%" stop-color="#171f2b" />
        </linearGradient>
        <linearGradient id="floor" x1="0" y1="0" x2="1" y2="0">
            <stop offset="0%" stop-color="#5f3641" />
            <stop offset="50%" stop-color="#714554" />
            <stop offset="100%" stop-color="#402d39" />
        </linearGradient>
        <linearGradient id="shirt" x1="0" y1="0" x2="0" y2="1">
            <stop offset="0%" stop-color="#3f8ad8" />
            <stop offset="100%" stop-color="#2e5fa4" />
        </linearGradient>
        <filter id="softBlur" x="-30%" y="-30%" width="160%" height="160%">
            <feGaussianBlur stdDeviation="18" />
        </filter>
        <filter id="mediumBlur" x="-30%" y="-30%" width="160%" height="160%">
            <feGaussianBlur stdDeviation="10" />
        </filter>
    </defs>

    <rect width="1600" height="900" fill="url(#bg)" />
    <rect x="0" y="0" width="420" height="900" fill="#1c2940" opacity="0.46" />
    <rect x="1170" y="140" width="255" height="395" rx="8" fill="#f1f3f8" opacity="0.42" filter="url(#softBlur)" />
    <rect x="1450" y="90" width="92" height="515" fill="#8b4753" opacity="0.42" filter="url(#mediumBlur)" />
    <rect x="605" y="0" width="280" height="900" fill="#7b485a" opacity="0.26" filter="url(#softBlur)" />
    <rect x="0" y="635" width="1600" height="265" fill="#151b23" opacity="0.35" />
    <path d="M0 665 C270 605 455 592 652 622 C820 648 1016 723 1222 701 C1360 686 1487 641 1600 615 L1600 900 L0 900 Z"
        fill="url(#floor)" opacity="0.9" />

    <g opacity="0.28" filter="url(#mediumBlur)">
        <circle cx="164" cy="507" r="116" fill="#7e8b9a" />
        <rect x="98" y="330" width="126" height="285" rx="52" fill="#bcc3d0" />
        <circle cx="424" cy="336" r="64" fill="#a4909a" />
        <rect x="358" y="392" width="136" height="255" rx="44" fill="#7d7287" />
        <circle cx="1004" cy="364" r="72" fill="#9c7787" />
        <rect x="934" y="430" width="150" height="228" rx="48" fill="#765e73" />
        <circle cx="1315" cy="594" r="84" fill="#5e626b" />
    </g>

    <g transform="translate(676 112)">
        <circle cx="106" cy="66" r="74" fill="#b2535f" opacity="0.95" />
        <path d="M26 34 C68 -8 152 -7 194 36 L200 98 L18 96 Z" fill="#ba5e68" />
        <path d="M90 128 C136 130 168 164 174 208 L182 264 L44 264 L56 202 C64 160 88 132 90 128 Z" fill="#222833"
            opacity="0.75" />
        <path d="M18 274 C76 218 186 218 244 274 L296 690 L-36 690 Z" fill="#8b5266" opacity="0.9" />
        <path d="M88 252 C150 236 214 250 260 298 L258 694 L26 694 L18 314 C40 286 58 266 88 252 Z" fill="url(#shirt)"
            opacity="0.92" />
        <path d="M96 260 C128 246 160 246 192 260 L174 694 L108 694 Z" fill="#2f4058" opacity="0.88" />
        <path d="M-16 330 C16 296 58 282 108 286 L80 510 L-24 552 Z" fill="#2d4d82" opacity="0.86" />
        <path d="M254 308 C308 322 340 362 352 424 L302 570 L230 520 Z" fill="#355f9d" opacity="0.86" />
        <rect x="100" y="202" width="88" height="18" rx="9" fill="#1c2430" opacity="0.82" />
        <rect x="70" y="214" width="146" height="26" rx="13" fill="#283443" opacity="0.9" />
        <circle cx="30" cy="590" r="44" fill="#1f2f48" opacity="0.44" />
        <circle cx="278" cy="624" r="48" fill="#1b2533" opacity="0.4" />
    </g>

    <g opacity="0.55" filter="url(#softBlur)">
        <circle cx="1110" cy="250" r="70" fill="#7c8798" />
        <circle cx="1240" cy="178" r="44" fill="#ffffff" opacity="0.18" />
        <circle cx="300" cy="210" r="92" fill="#6f7f95" opacity="0.22" />
    </g>
</svg>